<svg width="168" height="26" viewBox="0 0 168 26" fill="none" xmlns="http://www.w3.org/2000/svg">
<path d="M68.6589 20.6564C68.3859 20.6564 68.1367 20.4902 68.0206 20.2356L66.297 16.4445C61.2658 16.6708 58.4601 19.0226 57.2314 20.4159C57.0982 20.568 56.9071 20.6564 56.7091 20.6564H54.5281C54.4052 20.6564 54.296 20.5928 54.2311 20.4867C54.1663 20.3806 54.1594 20.2497 54.2106 20.133L60.4637 6.39391C60.8289 5.59467 61.6106 5.09603 62.5048 5.09603C63.3991 5.09603 64.1841 5.59467 64.546 6.39391L70.799 20.1295C70.8502 20.2427 70.8434 20.377 70.7785 20.4831C70.7137 20.5892 70.6011 20.6529 70.4816 20.6529H68.6657L68.6589 20.6564ZM59.0472 15.6948C60.8494 14.7152 62.8871 14.1069 65.1262 13.8841L62.498 8.11262L59.0472 15.6948Z" fill="white"/>
<path d="M160.062 20.6706C159.721 20.6706 159.404 20.5326 159.161 20.2851L148.075 8.78101V19.2206C148.075 20.0128 147.454 20.6564 146.689 20.6564H145.884C145.689 20.6564 145.532 20.4937 145.532 20.2922V6.77584C145.532 5.98721 146.153 5.34358 146.915 5.34004H147.823C148.164 5.34004 148.481 5.47443 148.72 5.72198L159.806 17.2261V6.77584C159.806 5.98368 160.428 5.34004 161.192 5.34004H161.998C162.192 5.34004 162.349 5.50272 162.349 5.7043V19.2312C162.349 20.0234 161.728 20.667 160.964 20.667H160.056L160.062 20.6706Z" fill="white"/>
<path d="M38.3461 20.6564C38.1515 20.6564 37.9945 20.4937 37.9945 20.2922V7.97824H31.209C31.0144 7.97824 30.8574 7.81556 30.8574 7.61399V6.77938C30.8574 5.98722 31.4786 5.34358 32.2432 5.34358H47.3059C47.5004 5.34358 47.6574 5.50626 47.6574 5.70784V6.54244C47.6574 7.33461 47.0362 7.97824 46.2717 7.97824H40.5374V19.2242C40.5374 20.0163 39.9162 20.66 39.1516 20.66H38.3461V20.6564Z" fill="white"/>
<path d="M109.287 5.70784V19.2206C109.287 20.0128 108.666 20.6564 107.901 20.6564H107.096C106.901 20.6564 106.744 20.4937 106.744 20.2922V6.77938C106.744 5.98722 107.365 5.34358 108.13 5.34358H108.936C109.13 5.34358 109.287 5.50626 109.287 5.70784Z" fill="white"/>
<path d="M94.238 20.6564C93.9274 20.6564 93.6202 20.5468 93.3744 20.3417L86.193 14.411C86.1179 14.3474 86.0223 14.3156 85.9267 14.3156H83.0084C82.8992 14.3156 82.807 14.4075 82.807 14.5242V19.2206C82.807 20.0128 82.1858 20.6564 81.4213 20.6564H80.6157C80.4212 20.6564 80.2642 20.4937 80.2642 20.2922V6.65207C80.2642 5.92709 80.8342 5.33297 81.5373 5.33297H93.2823V5.35065C95.5521 5.48504 97.3611 7.44423 97.3611 9.83134C97.3611 12.2184 95.419 14.3191 93.0297 14.3191H90.7326C90.5995 14.3191 90.5551 14.4252 90.5414 14.4606C90.5312 14.4924 90.5039 14.6055 90.6063 14.694L97.0437 20.0092C97.1597 20.1083 97.2075 20.2709 97.1563 20.4159C97.1051 20.5645 96.9754 20.66 96.8218 20.66H94.2346L94.238 20.6564ZM83.0084 7.96763C82.8992 7.96763 82.807 8.05958 82.807 8.17628V11.4723C82.807 11.589 82.8958 11.6809 83.0084 11.6809H93.0297C94.0161 11.6809 94.8182 10.8498 94.8182 9.8278C94.8182 8.80577 94.0161 7.9747 93.0297 7.9747H92.7771V7.96409H83.0084V7.96763Z" fill="white"/>
<path d="M133.59 20.6564C133.317 20.6564 133.067 20.4902 132.951 20.2356L131.228 16.4445C126.196 16.6708 123.391 19.0226 122.162 20.4159C122.029 20.568 121.838 20.6564 121.64 20.6564H119.459C119.336 20.6564 119.227 20.5928 119.162 20.4867C119.097 20.3806 119.09 20.2497 119.141 20.133L125.394 6.39744C125.76 5.5982 126.541 5.09956 127.436 5.09956C128.33 5.09956 129.115 5.5982 129.477 6.39744L135.73 20.133C135.781 20.2462 135.774 20.377 135.709 20.4831C135.644 20.5892 135.532 20.6529 135.412 20.6529H133.596L133.59 20.6564ZM123.978 15.6948C125.78 14.7152 127.818 14.1069 130.057 13.8841L127.429 8.11262L123.978 15.6948Z" fill="white"/>
<path d="M5.9953 20.6564C5.80074 20.6564 5.64373 20.4937 5.64373 20.2922V19.4576C5.64373 18.6654 6.26494 18.0218 7.02951 18.0218H18.3888C19.4913 18.0218 20.1773 17.0598 20.1773 16.1687C20.1773 15.0228 19.2114 14.3156 18.3171 14.3156H9.74987C7.3606 14.3156 5.41846 12.3033 5.41846 9.8278C5.41846 7.14363 7.71899 5.34004 9.86933 5.34004H22.1639C22.3584 5.34004 22.5154 5.50272 22.5154 5.7043V6.5389C22.5154 7.33106 21.8942 7.9747 21.1296 7.9747H9.74987C8.64739 7.9747 7.96133 8.93661 7.96133 9.8278C7.96133 10.9736 8.92728 11.6809 9.82155 11.6809H18.3888C20.7781 11.6809 22.7202 13.6931 22.7202 16.1687C22.7202 18.9412 20.4094 20.6564 18.2693 20.6564H5.9953Z" fill="white"/>
</svg>
